<svg width="28" height="22" viewBox="0 0 28 22" fill="none" xmlns="http://www.w3.org/2000/svg">
<path fill-rule="evenodd" clip-rule="evenodd" d="M16.3696 2.12786V1.22709C16.3696 0.945107 16.1696 0.701985 15.8931 0.647664C15.2785 0.526815 14.6435 0.464355 13.9941 0.464355C13.5951 0.464966 13.2023 0.489176 12.8163 0.53658C12.5765 0.565673 12.3399 0.603515 12.1059 0.649698C11.8294 0.704833 11.6304 0.947345 11.6304 1.22933V2.12423C8.01343 3.02311 5.19107 5.93287 4.41882 9.59773L1.59996 6.36215C1.25613 5.9225 0.554431 6.25819 0.681994 6.80201L4.20839 19.0882V20.4256C4.21002 21.1161 4.95057 21.556 5.56499 21.2396L13.5797 17.1167C13.8458 16.9802 14.1611 16.9834 14.4242 17.1246L22.4161 21.4233C23.0232 21.7501 23.7599 21.3263 23.7874 20.6374C23.7902 20.5619 23.7918 20.4866 23.7918 20.4106V19.0874L27.318 6.80201C27.4458 6.25819 26.7439 5.9225 26.4 6.36215L23.5673 9.61367C22.7763 5.95812 19.9716 3.03386 16.3696 2.12786ZM12.4925 10.6549V13.4804C12.4925 13.7964 12.3098 14.0837 12.0235 14.2173L9.37258 15.4543C9.07351 15.5939 8.71991 15.539 8.4774 15.3148L6.19144 13.2046C5.92716 12.9608 5.85453 12.5722 6.0124 12.2494L6.96862 10.2977C7.10493 10.0183 7.38854 9.84155 7.699 9.84155H11.6797C12.1285 9.84155 12.4925 10.2059 12.4925 10.6549ZM21.8086 13.2046C22.0729 12.9608 22.1455 12.5722 21.9877 12.2494L21.0315 10.2977C20.8951 10.0183 20.6115 9.84155 20.3011 9.84155H16.3206C15.8716 9.84155 15.5076 10.2059 15.5076 10.6549V13.4804C15.5076 13.7964 15.6903 14.0837 15.9765 14.2173L18.6275 15.4543C18.9266 15.5939 19.2802 15.539 19.5229 15.3148L21.8086 13.2046Z" fill="white"/>
</svg>
